<?xml version="1.0" standalone="no"?>
<!DOCTYPE svg PUBLIC "-//W3C//DTD SVG 20010904//EN"
 "http://www.w3.org/TR/2001/REC-SVG-20010904/DTD/svg10.dtd">
<svg version="1.0" xmlns="http://www.w3.org/2000/svg"
 width="1024.000000pt" height="1024.000000pt" viewBox="0 0 1024.000000 1024.000000"
 preserveAspectRatio="xMidYMid meet">

<g transform="translate(0.000000,1024.000000) scale(0.100000,-0.100000)"
fill="#000000" stroke="none">
<path d="M4920 9109 c-424 -47 -855 -286 -1125 -624 -239 -297 -363 -643 -368
-1027 l-2 -146 -330 -4 c-303 -4 -336 -6 -409 -27 -323 -91 -561 -330 -641
-644 -15 -59 -28 -152 -34 -248 -6 -85 -38 -557 -71 -1049 -110 -1640 -140
-2072 -165 -2440 -47 -690 -46 -681 -35 -780 18 -160 58 -273 145 -405 129
-197 310 -323 565 -392 61 -16 218 -18 2640 -20 2832 -4 2663 -7 2828 57 114
44 196 96 290 184 136 129 217 260 264 431 38 139 32 314 -60 1665 -85 1260
-88 1295 -152 2269 -22 332 -47 636 -55 676 -39 185 -106 315 -234 449 -114
119 -236 193 -398 243 -87 27 -92 27 -434 31 l-346 4 -6 166 c-17 467 -198
868 -532 1179 -366 342 -852 506 -1335 452z m392 -494 c408 -71 769 -377 913
-775 44 -123 65 -235 72 -387 l6 -143 -1191 0 -1192 0 0 103 c0 325 116 623
333 853 165 175 406 307 640 349 99 18 316 18 419 0z m-1003 -2875 c367 -102
618 -479 571 -857 -24 -188 -97 -339 -230 -473 -159 -159 -329 -230 -555 -230
-213 0 -382 66 -537 209 -116 107 -193 232 -234 382 -25 89 -25 318 0 409 80
298 343 531 651 580 85 13 250 3 334 -20z m2290 -16 c33 -41 26 -72 -31 -149
-189 -253 -1812 -2417 -2036 -2714 -215 -284 -282 -366 -308 -377 -25 -10 -86
-14 -238 -14 -201 0 -205 0 -232 24 -63 53 -126 -39 1048 1528 591 788 1120
1495 1176 1570 57 76 110 142 120 147 10 6 113 11 249 11 l232 0 20 -26z
m-144 -1731 c50 -17 120 -48 155 -69 85 -49 226 -190 278 -279 99 -168 135
-375 96 -563 -33 -164 -93 -271 -224 -402 -81 -81 -109 -103 -190 -143 -111
-55 -183 -75 -301 -84 -231 -16 -446 65 -614 232 -120 119 -186 239 -219 397
-86 415 175 822 593 928 60 16 103 19 206 17 114 -3 141 -7 220 -34z"/>
<path d="M3967 5296 c-87 -36 -141 -86 -179 -164 -30 -61 -33 -74 -33 -162 0
-79 4 -103 24 -142 34 -71 92 -130 157 -163 54 -27 68 -30 159 -30 90 0 105 3
153 28 137 72 211 223 182 372 -32 165 -156 273 -325 282 -68 3 -88 0 -138
-21z"/>
<path d="M6119 3577 c-265 -75 -342 -408 -136 -592 71 -64 141 -88 247 -83
103 5 168 35 235 111 63 70 88 142 83 242 -3 67 -10 90 -38 143 -39 74 -93
125 -165 158 -65 30 -163 39 -226 21z"/>
</g>
</svg>
