<?xml version="1.0" standalone="no"?>
<!DOCTYPE svg PUBLIC "-//W3C//DTD SVG 20010904//EN"
 "http://www.w3.org/TR/2001/REC-SVG-20010904/DTD/svg10.dtd">
<svg version="1.0" xmlns="http://www.w3.org/2000/svg"
 width="3524.000000pt" height="1184.000000pt" viewBox="0 0 3524.000000 1184.000000"
 preserveAspectRatio="xMidYMid meet">

<g transform="translate(0.000000,1184.000000) scale(0.100000,-0.100000)"
fill="#000000" stroke="none">
<path d="M9075 11671 c-93 -23 -224 -136 -310 -270 -143 -221 -223 -486 -261
-866 l-6 -60 -24 93 c-62 246 -158 336 -291 271 -88 -43 -165 -162 -226 -354
-78 -241 -93 -462 -51 -749 8 -55 14 -103 14 -107 0 -4 -26 19 -58 51 -69 69
-122 89 -184 71 -77 -24 -129 -95 -165 -231 -24 -90 -24 -424 0 -561 23 -136
81 -327 127 -426 22 -47 34 -83 27 -80 -6 3 -196 95 -422 205 -473 231 -582
288 -870 460 -124 74 -231 131 -260 139 -116 30 -638 428 -972 741 -257 242
-450 460 -708 802 -194 257 -225 283 -330 283 -93 0 -149 -39 -200 -140 -53
-107 -68 -191 -69 -388 0 -150 4 -197 22 -284 53 -240 166 -500 318 -728 45
-67 75 -119 66 -114 -18 10 -236 189 -399 329 -130 111 -200 154 -261 160 -94
9 -155 -41 -187 -152 -14 -48 -16 -86 -12 -200 8 -231 71 -421 223 -676 103
-174 215 -313 397 -492 82 -82 147 -148 144 -148 -3 0 -103 48 -223 107 -200
99 -224 108 -285 111 -65 4 -68 3 -107 -33 -45 -40 -59 -74 -65 -154 -19 -290
231 -699 608 -994 127 -99 311 -218 438 -283 60 -31 106 -58 103 -61 -3 -3
-62 2 -130 12 -195 27 -285 3 -320 -85 -81 -204 184 -534 594 -740 192 -96
373 -156 645 -215 l150 -32 -60 -17 c-288 -83 -296 -323 -17 -469 205 -108
490 -177 726 -177 53 0 96 -4 96 -8 0 -5 -12 -19 -26 -33 -61 -57 -84 -160
-51 -226 53 -101 220 -160 482 -170 81 -3 169 1 233 9 l103 14 19 -43 c12 -27
35 -54 65 -75 31 -22 44 -37 40 -47 -15 -39 -234 -370 -266 -402 -70 -70 -343
-172 -572 -214 -311 -56 -355 -60 -777 -60 -446 1 -490 4 -905 80 -342 62
-421 59 -496 -16 -91 -91 -75 -287 37 -455 48 -73 154 -179 237 -238 67 -48
246 -144 306 -165 21 -6 31 -15 25 -20 -5 -5 -83 -32 -174 -61 -201 -63 -361
-142 -430 -211 -132 -132 -148 -310 -38 -416 125 -120 340 -180 681 -190 103
-3 187 -8 187 -11 0 -3 -32 -37 -71 -77 -126 -129 -181 -232 -183 -345 -1 -81
28 -137 92 -180 130 -86 432 -78 732 19 52 16 95 29 97 27 1 -1 -13 -37 -31
-80 -87 -200 -61 -352 69 -402 36 -13 66 -16 152 -12 181 9 309 63 515 218
l93 70 7 -59 c24 -209 212 -274 414 -143 91 60 227 184 311 285 111 132 262
369 348 542 79 159 231 511 286 660 18 50 36 94 40 99 4 5 54 -12 111 -37 57
-25 146 -59 199 -76 53 -18 104 -38 115 -45 17 -13 15 -15 -23 -35 -75 -38
-110 -110 -100 -207 7 -68 36 -123 89 -168 68 -58 126 -71 318 -70 288 1 388
48 468 215 39 83 56 172 49 260 l-6 69 52 -1 c88 -1 160 -37 107 -54 -40 -13
-89 -66 -101 -108 -32 -119 62 -261 189 -288 107 -22 333 6 424 52 198 101
270 384 147 584 -23 36 -27 50 -17 54 54 17 359 182 426 231 46 33 86 60 89
60 3 0 3 -33 -1 -72 -11 -113 -114 -1004 -167 -1441 -33 -268 -31 -300 15
-330 37 -24 1172 -433 1282 -462 60 -15 38 -19 389 60 1180 267 2350 547 2423
580 64 29 64 44 2 385 -48 261 -180 1009 -221 1250 -16 96 -39 224 -49 284
-11 60 -19 111 -17 112 2 2 133 -148 293 -333 361 -421 390 -452 439 -474 100
-46 156 -18 395 193 102 89 292 256 421 370 258 227 284 258 282 343 -1 96 43
40 -727 919 -485 554 -528 600 -579 625 -32 15 -99 27 -272 46 -127 14 -281
32 -343 40 -62 8 -132 15 -155 15 -41 1 -43 2 -117 102 -203 274 -527 552
-834 718 l-94 51 59 123 c71 146 89 222 89 374 0 137 -9 178 -66 303 l-44 96
9 79 c15 126 6 344 -19 464 -110 533 -541 947 -1113 1072 -139 30 -505 33
-637 5 -122 -26 -274 -79 -379 -131 -95 -48 -296 -179 -343 -224 -15 -14 -30
-24 -32 -21 -2 2 -17 45 -34 95 -56 166 -142 342 -274 559 -182 298 -299 569
-431 995 -97 313 -174 760 -212 1220 -16 206 -25 243 -67 295 -47 56 -117 82
-183 66z m64 -203 c6 -18 15 -103 21 -188 46 -671 165 -1226 375 -1752 56
-140 60 -152 48 -145 -15 9 -53 -12 -53 -28 0 -9 -4 -13 -10 -10 -5 3 -10 -2
-10 -12 -1 -17 -2 -16 -16 2 -69 90 -165 373 -273 805 -17 69 -40 159 -51 200
-27 98 -65 324 -81 475 -17 172 -17 276 1 683 0 1 9 2 19 2 13 0 23 -11 30
-32z m-4866 -750 c79 -106 190 -249 248 -318 404 -483 915 -935 1456 -1284 54
-34 74 -54 79 -74 3 -15 16 -62 29 -105 12 -43 20 -77 16 -75 -17 8 -198 123
-350 224 -271 179 -456 328 -783 628 -248 227 -388 379 -549 596 -169 226
-347 553 -323 591 15 25 46 -7 177 -183z m-636 -1014 c48 -37 225 -184 358
-299 101 -87 386 -296 565 -415 240 -160 460 -329 460 -353 0 -9 -2 -9 -8 -1
-10 16 -69 27 -76 16 -3 -6 3 -8 14 -5 12 3 20 0 20 -6 0 -7 -5 -9 -11 -5 -6
3 -15 0 -20 -7 -7 -11 -9 -11 -9 -1 0 7 -4 11 -10 7 -17 -10 -283 133 -440
238 -116 77 -451 331 -488 369 -28 29 -31 38 -23 59 5 13 10 19 10 14 1 -6 15
-12 31 -13 25 -2 30 1 30 19 0 15 -5 19 -15 15 -8 -3 -14 0 -12 7 1 7 -4 11
-10 9 -7 -1 -13 5 -13 13 0 17 -65 22 -74 6 -4 -5 4 -7 16 -3 15 3 19 2 14 -7
-4 -6 -2 -19 6 -29 12 -16 11 -16 -13 0 -15 10 -30 13 -35 8 -13 -13 -140 95
-207 176 -31 37 -72 98 -92 135 -53 101 -47 112 32 53z m6111 -614 c14 -25 64
-110 111 -190 76 -129 121 -212 121 -223 0 -1 -16 -1 -35 1 -19 2 -35 8 -35
14 0 5 5 6 10 3 18 -11 10 11 -12 35 -19 20 -19 23 -4 17 14 -6 17 -4 12 9 -3
8 -6 21 -6 27 0 7 -4 6 -10 -3 -9 -14 -12 -12 -9 6 0 4 -5 11 -13 16 -10 7 -9
8 5 4 21 -7 23 10 2 18 -8 3 -15 9 -14 13 3 19 -2 33 -12 33 -8 0 -9 -4 0 -13
15 -19 3 -27 -24 -17 -32 12 -41 -13 -12 -35 12 -9 17 -13 10 -10 -6 3 -13 -1
-16 -7 -6 -16 -37 11 -40 34 -2 8 -15 27 -30 44 -26 28 -119 195 -123 222 -1
7 8 17 21 22 13 5 25 13 28 17 3 5 15 9 27 9 15 0 29 -14 48 -46z m-3395 -168
c255 -152 465 -262 849 -443 283 -134 492 -239 583 -294 127 -77 304 -211 385
-294 148 -150 282 -382 390 -676 69 -188 165 -383 237 -480 33 -44 104 -120
158 -170 210 -191 249 -235 293 -325 47 -100 60 -152 70 -280 l7 -95 20 80
c26 104 26 265 1 350 -20 67 -56 141 -97 202 l-29 41 88 69 c306 242 449 449
612 883 84 224 144 356 219 483 212 355 592 609 1006 674 201 31 475 2 665
-70 240 -90 463 -254 603 -442 52 -70 134 -213 125 -219 -2 -1 -21 -8 -44 -14
-40 -12 -83 -46 -71 -58 3 -3 14 -1 25 5 23 12 71 14 97 5 9 -4 24 -23 35 -44
21 -42 58 -206 48 -215 -4 -4 -21 4 -38 17 -67 49 -172 14 -224 -74 -40 -70
-59 -161 -52 -253 3 -44 9 -91 12 -104 7 -22 5 -23 -27 -15 -19 5 -72 9 -119
8 -74 0 -93 -4 -151 -32 -81 -39 -145 -105 -192 -199 -61 -121 -159 -183 -211
-134 -12 11 -27 21 -33 21 -30 0 -133 -115 -133 -148 0 -11 3 -12 14 -3 8 7
32 11 53 9 42 -3 42 -4 138 -208 22 -47 63 -121 92 -164 29 -43 53 -81 53 -84
0 -2 -42 -48 -94 -102 -105 -110 -177 -213 -241 -345 -80 -168 -142 -404 -152
-586 l-6 -96 -176 -32 c-97 -17 -249 -45 -338 -61 -172 -31 -199 -39 -207 -67
-3 -10 -14 -94 -25 -188 -42 -348 -82 -687 -107 -905 -14 -124 -31 -236 -37
-250 -31 -64 -360 -278 -575 -375 -294 -133 -533 -190 -819 -196 -153 -4 -160
3 -88 87 116 137 155 236 163 410 4 104 2 132 -16 190 -12 38 -28 78 -36 89
-14 19 -14 18 -20 -15 -3 -19 -8 -74 -11 -122 -15 -217 -103 -385 -256 -487
-37 -25 -103 -54 -172 -77 -133 -43 -171 -42 -322 7 -53 17 -98 29 -100 27 -3
-2 13 -27 35 -56 22 -28 36 -53 32 -55 -25 -15 -108 -16 -173 -2 -145 30 -227
92 -305 233 -21 37 -64 106 -95 155 -32 48 -61 96 -64 107 -13 41 -25 7 -25
-69 0 -86 24 -195 63 -284 l26 -57 -24 0 c-55 0 -351 86 -570 166 -33 12 40
-60 130 -129 97 -73 228 -137 355 -172 52 -15 100 -28 107 -30 8 -3 5 -23 -13
-67 -123 -304 -196 -474 -256 -596 -61 -122 -80 -151 -127 -193 -45 -40 -212
-139 -236 -139 -15 0 -35 74 -35 127 0 52 5 67 47 133 63 102 165 317 196 415
64 204 49 191 -173 -145 -150 -227 -227 -322 -302 -370 -72 -47 -251 -108
-328 -112 -50 -3 -54 -1 -61 22 -4 14 -7 56 -8 94 l-1 70 161 154 c158 153
287 299 366 417 51 77 105 183 100 198 -2 7 -118 -100 -258 -238 -150 -148
-303 -288 -373 -342 l-119 -91 -111 -21 c-175 -33 -382 -27 -415 13 -14 16 8
106 44 175 22 44 34 54 117 99 285 152 527 311 665 437 71 65 150 161 140 171
-3 3 -27 -10 -54 -29 -26 -20 -113 -73 -194 -120 -80 -46 -183 -107 -230 -135
-98 -59 -330 -173 -416 -204 -44 -16 -90 -22 -188 -25 -205 -7 -335 30 -431
122 -39 36 -44 47 -44 84 0 56 23 102 71 145 67 62 125 84 245 96 265 26 450
65 606 126 138 54 312 147 406 216 82 61 100 83 45 55 -46 -24 -378 -133 -503
-165 -140 -37 -312 -63 -417 -64 -159 -1 -340 70 -450 178 -66 64 -83 95 -83
147 0 37 31 92 69 124 14 12 21 22 15 23 -5 0 -15 -5 -21 -11 -7 -7 -23 -13
-37 -14 -20 -3 -26 1 -26 17 0 17 5 20 30 16 18 -3 31 0 34 9 3 8 -2 13 -13
13 -11 0 -27 3 -37 7 -12 4 -15 3 -10 -5 5 -9 1 -10 -16 -3 -26 9 -23 9 -197
-9 -131 -13 -213 -7 -331 27 l-54 15 34 29 c19 16 33 29 30 29 -3 1 -13 3 -22
6 -10 2 -24 5 -30 7 -7 1 -17 5 -23 8 -23 13 -125 3 -145 -14 -19 -16 -20 -16
-20 18 0 18 3 36 8 38 4 2 50 -4 102 -14 160 -32 619 -108 724 -120 162 -19
743 -6 936 20 356 49 626 120 813 212 161 79 171 90 398 442 l107 164 63 7
c78 9 212 48 299 88 54 25 79 30 150 32 68 1 96 6 140 27 119 56 282 215 395
386 39 59 59 79 115 112 91 54 170 120 225 187 25 31 45 59 45 63 0 4 -28 27
-62 51 l-62 44 34 8 c19 5 61 20 93 35 l58 27 -68 14 c-110 22 -220 80 -290
155 -121 130 -193 319 -273 717 -92 461 -160 632 -339 849 -125 153 -264 258
-581 441 -325 187 -497 316 -716 534 -138 138 -218 245 -296 401 -44 86 -91
205 -82 205 3 0 65 -35 137 -78z m-1000 -505 c42 -27 77 -51 77 -53 0 -18
-151 69 -168 96 -16 26 -21 28 91 -43z m-1452 -236 c275 -134 415 -192 674
-281 99 -34 228 -87 288 -117 100 -52 132 -76 76 -55 -64 24 -79 24 -89 -2
-11 -29 -27 -28 -165 6 -206 50 -523 175 -628 246 l-28 19 33 21 c18 12 27 22
20 22 -7 0 -10 5 -6 11 4 8 -1 9 -16 4 -15 -5 -20 -4 -16 4 5 7 -2 11 -18 11
-14 0 -25 3 -25 8 1 4 1 14 0 22 -1 13 -2 13 -11 0 -8 -12 -10 -12 -10 -1 0 8
-3 11 -7 8 -3 -4 -12 1 -19 11 -7 9 -14 12 -14 6 0 -6 -7 -11 -15 -11 -9 0
-14 6 -11 13 5 13 -23 12 -46 -2 -6 -4 -8 -3 -5 4 5 6 0 8 -13 5 -11 -3 -17
-10 -13 -16 3 -5 -18 3 -47 19 -75 41 -129 93 -136 132 -4 17 -4 32 -2 32 3 0
115 -54 249 -119z m2344 -77 l40 -14 -37 5 c-21 2 -38 0 -38 -5 0 -5 -12 -10
-27 -12 -19 -2 -29 -10 -33 -27 -5 -23 -7 -21 -18 16 -7 22 -12 43 -12 47 0
11 84 5 125 -10z m235 -84 c8 -5 11 -10 5 -10 -5 0 -17 5 -25 10 -8 5 -10 10
-5 10 6 0 17 -5 25 -10z m243 -94 c78 -29 160 -63 182 -74 l40 -21 -31 -1
c-30 0 -154 29 -277 65 -55 16 -58 18 -42 35 15 17 15 19 -7 34 -35 24 -20 20
135 -38z m-250 -205 c43 -58 76 -111 75 -119 -2 -8 -16 -16 -32 -18 -37 -4
-42 -10 -25 -31 8 -10 -14 6 -48 35 -66 57 -172 182 -200 235 l-16 32 21 -19
c21 -18 23 -18 67 -2 25 10 45 23 46 29 0 7 8 1 17 -12 9 -13 52 -72 95 -130z
m-1133 -162 c13 -7 13 -8 0 -8 -8 0 -26 6 -40 15 l-25 15 25 -7 c14 -3 32 -10
40 -15z m7240 -58 c50 -36 65 -78 65 -181 0 -88 -3 -102 -37 -181 -36 -80 -47
-122 -31 -105 4 4 17 30 29 58 l21 50 20 -28 c57 -81 103 -223 103 -318 0 -52
-18 -135 -41 -191 -10 -25 -13 -27 -16 -10 -13 67 -30 120 -65 193 -28 58 -42
102 -46 149 -7 64 -8 67 -47 88 -21 13 -41 27 -43 33 -2 6 12 33 32 61 47 69
59 111 54 191 -4 77 -32 128 -85 157 -38 21 -42 40 -10 53 28 12 65 4 97 -19z
m-95 -75 c37 -27 10 -126 -35 -126 -46 0 -67 71 -34 118 17 25 42 28 69 8z
m-5654 -93 c13 -16 12 -17 -3 -4 -10 7 -18 15 -18 17 0 8 8 3 21 -13z m50 -40
c12 -16 12 -17 -1 -7 -8 6 -22 14 -30 17 -13 5 -12 6 1 6 9 1 23 -7 30 -16z
m-178 -174 c87 -12 153 -25 146 -29 -6 -4 -9 -12 -6 -17 3 -5 -2 -9 -11 -9
-30 2 -236 -15 -259 -21 -30 -7 -29 -17 4 -60 38 -50 38 -70 1 -64 -5 0 -8 -8
-8 -20 0 -13 -4 -18 -12 -13 -7 4 7 -13 32 -38 25 -24 47 -44 50 -43 3 1 13
-6 23 -17 25 -26 12 -22 -38 12 -62 42 -201 176 -235 225 -31 46 -46 88 -35
104 10 18 179 13 348 -10z m5658 -76 c56 -31 103 -87 115 -137 l7 -28 -44 8
c-24 5 -74 9 -112 8 -60 -1 -78 -6 -172 -54 -117 -59 -156 -62 -195 -13 -39
49 -19 116 54 180 65 58 113 73 212 70 68 -3 89 -8 135 -34z m110 -268 c90
-64 145 -226 136 -404 -2 -59 -8 -116 -13 -127 -8 -21 -13 -18 -73 37 -51 47
-59 59 -42 59 11 0 20 -3 20 -7 -3 -20 2 -24 16 -13 8 7 15 18 15 24 0 6 -5 4
-10 -4 -8 -12 -10 -10 -10 8 0 13 -4 20 -10 17 -5 -3 -10 -1 -10 5 0 7 -7 10
-15 6 -8 -3 -15 -1 -15 5 0 6 -4 7 -10 4 -6 -3 -7 1 -4 10 5 11 2 14 -12 8
-11 -4 -15 -3 -10 5 3 6 -3 14 -16 18 -13 3 -29 11 -36 17 -7 6 -29 12 -49 14
-30 3 -34 2 -25 -10 13 -15 -261 71 -294 93 -16 10 -16 11 -1 6 20 -6 22 4 5
23 -10 11 -10 12 -1 7 9 -5 11 -2 7 8 -3 8 -12 17 -20 20 -10 4 -13 1 -9 -7 4
-6 -3 0 -15 16 -12 15 -27 27 -34 27 -14 0 -46 35 -46 51 0 5 -5 7 -11 3 -6
-3 -15 -1 -19 6 -11 18 -52 19 -73 1 -12 -10 -21 -11 -28 -4 -6 6 7 20 41 41
l51 31 44 -34 c83 -62 169 -61 270 5 88 58 128 71 202 67 50 -2 71 -9 104 -32z
m-7896 -10 c55 -7 228 -27 385 -44 157 -17 321 -35 365 -40 74 -9 70 -9 -40
-4 -66 3 -136 7 -155 8 -22 2 -47 -4 -67 -17 -20 -12 -33 -15 -33 -8 0 7 -5 8
-12 3 -14 -9 -158 -11 -153 -3 2 3 -6 7 -18 7 -17 2 -19 0 -7 -7 8 -5 10 -10
5 -10 -6 0 -17 6 -24 13 -7 7 -39 12 -76 12 -55 1 -62 -1 -52 -14 9 -12 9 -13
0 -7 -7 4 -36 9 -63 11 -88 8 -230 48 -216 62 3 3 1 12 -5 19 -9 11 -6 16 12
23 32 13 39 13 154 -4z m2240 -50 c19 -2 35 0 35 4 0 19 42 4 130 -47 112 -64
106 -60 93 -73 -6 -6 -33 -1 -84 17 -93 33 -279 124 -279 136 0 5 16 0 35 -12
20 -12 51 -24 70 -25z m-1605 -95 c11 0 20 -4 20 -8 0 -8 52 -15 98 -15 12 1
22 -4 22 -9 0 -16 -242 1 -258 18 -7 7 -9 12 -5 9 3 -3 17 2 31 11 13 8 30 13
38 10 8 -3 14 0 14 7 0 7 5 4 11 -5 5 -10 19 -18 29 -18z m-5 20 c3 -5 1 -10
-4 -10 -6 0 -11 5 -11 10 0 6 2 10 4 10 3 0 8 -4 11 -10z m6623 -165 c34 -21
62 -40 62 -42 0 -2 -4 -2 -9 1 -5 3 -15 -10 -23 -29 l-14 -36 -31 43 c-35 49
-69 112 -56 106 4 -3 36 -22 71 -43z m598 -107 l19 -21 -27 18 c-29 18 -34 25
-20 25 5 0 17 -10 28 -22z m-5379 6 c-3 -3 -12 -4 -19 -1 -8 3 -5 6 6 6 11 1
17 -2 13 -5z m-87 -19 c-19 -7 -34 -18 -32 -24 2 -11 -10 -15 -34 -12 -7 1
-15 -6 -18 -16 -4 -10 -4 -15 -1 -11 3 3 23 -11 43 -32 23 -23 45 -36 59 -35
12 1 19 -3 16 -8 -3 -5 6 -1 20 8 15 9 30 14 36 11 5 -3 11 -2 13 3 2 8 266
-114 283 -131 3 -3 -5 -3 -18 -1 -17 3 -24 0 -24 -11 0 -8 4 -13 9 -10 4 3 8
0 8 -5 0 -6 10 -12 23 -12 16 -1 18 -2 5 -6 -31 -8 -177 35 -271 80 -158 75
-255 163 -221 197 11 11 79 28 114 28 21 0 20 -1 -10 -13z m5424 -177 c-3 -4
-31 -7 -62 -7 -31 1 -45 4 -30 6 26 4 46 34 39 58 -1 6 11 -3 28 -19 17 -16
28 -33 25 -38z m-520 -153 c-69 -144 -95 -259 -101 -445 -3 -85 0 -209 6 -274
6 -66 10 -121 8 -122 -5 -5 -299 -55 -302 -52 -3 2 0 47 6 99 27 249 116 502
246 697 54 81 153 192 173 192 5 0 -11 -43 -36 -95z m1272 -123 c152 -122 429
-412 475 -499 15 -28 -5 -61 -61 -102 l-39 -28 -158 63 c-87 35 -165 64 -174
64 -11 0 -20 17 -28 58 -38 169 -152 434 -247 570 -24 35 -44 65 -44 68 0 9
180 -117 276 -194z m-355 15 c94 -137 195 -368 214 -493 l7 -41 -138 -21 c-77
-12 -142 -22 -146 -22 -4 0 -4 71 -1 158 8 218 -15 411 -62 535 -8 20 -15 40
-15 44 0 18 87 -81 141 -160z m-281 75 c51 -136 64 -217 64 -407 1 -189 -7
-274 -27 -280 -39 -10 -589 -96 -594 -92 -3 3 -12 50 -20 104 -19 123 -13 349
12 443 19 72 97 241 122 262 11 9 56 13 147 15 72 1 158 8 191 16 38 9 64 10
72 4 7 -5 22 -34 33 -65z m-4927 41 c-7 -2 -19 -2 -25 0 -7 3 -2 5 12 5 14 0
19 -2 13 -5z m-109 -237 c-3 -7 -16 -19 -30 -26 -13 -7 -24 -20 -25 -29 0 -13
-2 -13 -6 -2 -4 9 7 26 28 43 38 32 40 33 33 14z m-1628 -17 c3 -6 16 -9 28
-7 20 4 21 2 12 -19 -6 -12 -15 -23 -19 -23 -5 0 -5 -5 -1 -12 4 -7 3 -8 -5
-4 -6 4 -8 12 -5 18 4 6 1 9 -7 6 -8 -3 -13 -12 -13 -21 1 -13 -5 -15 -29 -10
-20 4 -28 3 -24 -4 5 -7 -5 -8 -29 -3 -47 11 -53 19 -30 36 18 12 18 14 3 14
-10 0 -22 -10 -27 -22 l-9 -23 0 22 c-1 18 9 24 57 38 31 9 62 18 67 20 18 6
24 5 31 -6z m-166 -39 c0 -5 -5 -10 -11 -10 -5 0 -7 5 -4 10 3 6 8 10 11 10 2
0 4 -4 4 -10z m8366 -449 c87 -11 226 -27 308 -36 82 -9 160 -21 172 -28 35
-19 127 -121 640 -711 629 -725 594 -682 594 -735 0 -44 -15 -59 -400 -396
-478 -418 -477 -417 -525 -399 -9 4 -165 180 -347 393 -183 212 -357 415 -388
451 -199 230 -465 547 -480 574 -18 29 -18 51 -10 411 5 209 9 381 9 382 4 14
76 83 87 83 13 0 50 -49 97 -131 l27 -45 -26 -38 c-16 -24 -28 -57 -31 -92
-19 -180 187 -300 329 -191 82 63 104 162 56 255 -32 63 -87 100 -162 110
l-59 7 -48 78 c-57 91 -72 85 157 58z m-546 -240 c0 -28 -3 -52 -8 -55 -4 -2
-56 -15 -116 -27 -121 -26 -126 -24 -126 43 0 36 1 37 53 47 28 6 81 17 117
25 36 7 68 14 73 15 4 0 7 -21 7 -48z m550 -53 c28 -45 25 -75 -9 -109 -39
-38 -87 -39 -130 -3 -24 19 -31 34 -31 60 0 37 6 40 34 19 16 -12 23 -12 48 1
24 13 29 20 24 40 -6 21 -3 24 19 24 18 0 31 -10 45 -32z m-948 -36 c3 -36 1
-43 -17 -47 -11 -3 -112 -21 -225 -40 -113 -20 -324 -58 -470 -85 -387 -72
-346 -70 -359 -24 -16 58 -15 62 32 69 59 10 747 132 897 159 69 13 128 20
131 17 4 -3 9 -25 11 -49z m-2172 -156 l85 -21 -3 -230 c-2 -126 -10 -462 -18
-745 -8 -283 -18 -699 -24 -925 -5 -225 -12 -519 -16 -653 l-7 -242 -141 -81
c-78 -45 -203 -119 -279 -165 -76 -46 -140 -84 -141 -84 -3 0 4 61 59 515 52
426 229 1946 276 2360 17 154 33 285 35 292 3 14 56 8 174 -21z m946 -30 c3
-13 4 -36 2 -52 -3 -27 -5 -28 -128 -51 -69 -12 -163 -28 -208 -34 -50 -7 -86
-18 -89 -25 -3 -7 3 -104 11 -216 9 -112 25 -320 36 -463 11 -143 22 -282 25
-310 3 -27 12 -140 21 -250 8 -110 19 -249 24 -310 6 -60 10 -160 9 -222 -1
-105 -2 -113 -23 -120 -11 -4 -24 -6 -28 -5 -16 4 -8 -69 8 -75 11 -4 12 -8 4
-13 -8 -5 -7 -9 4 -13 9 -4 16 -2 16 3 0 5 9 2 20 -7 11 -10 20 -26 20 -36 0
-27 -19 -57 -35 -57 -8 0 -18 -15 -23 -32 l-9 -33 -6 30 c-4 17 -11 84 -17
150 -5 66 -23 280 -39 475 -17 195 -40 478 -51 628 -12 150 -34 427 -50 615
-15 188 -26 344 -24 346 3 3 432 86 516 100 4 0 10 -10 14 -23z m1381 -591
c12 -4 24 -17 27 -30 4 -16 15 -25 33 -27 19 -2 27 -9 28 -25 1 -13 10 -33 21
-45 10 -12 13 -18 7 -14 -8 4 -13 1 -13 -9 0 -9 -9 -24 -20 -33 -18 -16 -36
-102 -21 -102 4 0 8 -8 9 -17 1 -10 3 -27 5 -38 2 -11 -4 -31 -15 -45 -58 -76
-95 -155 -77 -165 13 -9 11 -45 -2 -45 -7 0 -9 -9 -6 -22 4 -14 -2 -31 -19
-50 -27 -33 -30 -64 -9 -92 8 -10 12 -22 10 -27 -3 -4 -1 -10 5 -14 5 -3 10
-14 10 -24 0 -28 27 -46 73 -50 5 -1 5 -6 1 -13 -4 -6 -3 -8 3 -5 5 3 22 0 37
-8 15 -8 30 -14 34 -13 11 3 115 -33 130 -45 6 -5 12 -6 12 -3 0 4 10 0 22 -8
12 -9 29 -16 38 -16 18 0 116 -108 143 -157 11 -21 17 -48 15 -65 -3 -15 0
-28 5 -28 6 0 7 -3 4 -6 -3 -4 0 -15 7 -26 9 -12 12 -34 9 -59 -5 -34 -2 -43
26 -69 27 -26 30 -34 20 -51 -8 -16 -6 -30 8 -62 11 -23 20 -58 21 -77 3 -45
30 -119 54 -146 26 -29 23 -34 -20 -34 -20 0 -54 -9 -74 -19 -19 -11 -39 -17
-42 -14 -3 4 -6 1 -6 -5 0 -7 -8 -12 -18 -12 -10 0 -29 -11 -42 -25 -13 -14
-25 -23 -28 -21 -2 2 -19 -2 -38 -10 -19 -8 -34 -11 -34 -8 0 4 -6 2 -12 -4
-7 -5 -44 -13 -83 -17 -38 -4 -79 -9 -90 -11 -100 -19 -156 -20 -219 -3 -22 6
-45 12 -51 14 -29 6 -53 23 -92 62 -24 24 -48 43 -54 43 -6 0 -7 5 -4 10 3 6
0 10 -8 10 -8 0 -20 18 -27 40 -7 21 -17 37 -21 34 -5 -3 -9 3 -9 12 0 10 -3
15 -6 11 -7 -7 -34 17 -34 31 0 16 -54 34 -113 37 -62 4 -102 -7 -127 -35 -8
-9 -19 -17 -25 -19 -17 -5 -19 -11 -4 -12 10 0 9 -3 -3 -7 -10 -4 -36 -44 -58
-90 -22 -46 -36 -80 -30 -77 10 6 1 -67 -10 -75 -4 -3 -13 -22 -19 -42 -7 -21
-19 -38 -27 -38 -9 0 -12 -5 -9 -10 4 -6 3 -10 -2 -9 -4 1 -21 1 -38 0 -23 -1
-27 -3 -15 -11 13 -8 12 -10 -2 -10 -10 0 -20 1 -21 3 -2 1 -10 -3 -18 -9 -15
-12 -123 -13 -135 -1 -4 4 -21 7 -37 7 -28 0 -29 2 -23 33 3 17 6 60 7 95 3
71 17 98 58 107 19 4 28 11 25 20 -3 7 3 19 13 27 26 19 48 61 35 66 -6 2 -8
10 -5 18 4 11 8 12 13 4 5 -8 9 -7 13 4 4 9 2 16 -4 16 -6 0 -1 8 11 18 20 16
21 21 11 60 -7 23 -15 42 -20 42 -5 0 -6 17 -3 38 2 20 5 49 6 64 0 14 4 24 8
22 11 -7 15 29 6 54 -4 12 -4 22 1 22 4 0 6 12 3 26 -3 19 -1 25 7 20 6 -4 11
-1 11 9 0 10 -5 13 -12 9 -8 -5 -9 0 -5 15 4 16 2 21 -7 18 -7 -3 -23 4 -37
14 -13 10 -31 19 -39 19 -8 0 -28 7 -43 15 -15 8 -25 9 -21 4 4 -6 -6 -3 -22
7 -17 12 -25 14 -20 6 7 -12 4 -12 -15 -1 -13 7 -26 12 -29 12 -23 -2 -136 41
-165 62 -56 42 -131 121 -127 134 2 7 -5 23 -17 35 -12 12 -18 26 -14 29 3 4
2 7 -4 7 -6 0 -14 17 -18 37 -4 21 -13 50 -22 66 -8 16 -13 40 -10 53 2 13 1
24 -4 24 -11 0 -29 67 -29 106 0 17 -3 34 -7 37 -14 15 -18 75 -11 175 3 52 2
55 -39 93 -24 22 -43 42 -43 45 0 3 19 4 43 3 32 -2 51 4 75 21 18 13 31 29
28 35 -2 7 10 20 27 30 18 10 34 22 37 25 4 6 97 37 140 47 47 10 144 12 162
2 16 -9 19 -8 13 2 -6 9 -2 11 15 6 13 -3 29 -2 35 3 7 6 21 4 38 -5 16 -8 25
-9 21 -3 -5 8 0 9 17 4 13 -4 40 -10 59 -13 19 -3 42 -11 51 -19 8 -8 23 -14
32 -14 9 0 17 -5 17 -11 0 -5 4 -8 9 -4 11 6 91 -68 91 -85 0 -5 3 -9 8 -9 17
3 28 -2 55 -25 15 -13 27 -28 27 -34 0 -6 17 -24 38 -40 37 -29 65 -33 137
-20 32 6 69 35 53 41 -9 4 -7 6 4 6 11 1 15 6 12 15 -3 8 3 19 16 26 11 6 18
15 15 21 -4 5 -1 9 5 9 8 0 34 48 30 58 0 1 11 13 24 25 14 13 28 35 31 49 6
22 55 78 55 63 0 -3 10 4 22 15 13 11 33 23 45 26 13 4 21 9 19 13 -5 8 123 5
151 -4z m562 -214 c6 -14 17 -64 25 -111 8 -47 31 -173 51 -280 34 -183 118
-661 220 -1255 24 -143 47 -285 50 -315 l6 -55 -16 34 c-13 29 -19 33 -45 29
-29 -4 -29 -3 -44 61 -8 36 -27 136 -41 221 -14 85 -41 238 -60 340 -64 336
-106 572 -130 724 -12 83 -43 257 -68 386 -25 129 -48 260 -52 290 l-7 55 50
-49 c28 -27 55 -61 61 -75z m-8778 -927 c-25 -8 -47 -12 -49 -9 -5 5 56 23 78
23 8 0 -5 -6 -29 -14z m3793 -146 c26 -29 56 -73 68 -97 28 -58 36 -173 15
-221 -12 -28 -16 -31 -16 -13 -1 12 -9 24 -20 28 -14 4 -20 19 -25 66 -8 72
-32 129 -86 209 -42 61 -49 85 -27 93 19 7 42 -9 91 -65z m-4307 -36 c-26 -16
-44 -32 -40 -36 4 -4 0 -4 -10 0 -9 3 -27 0 -40 -8 -23 -15 -87 -40 -87 -33 0
11 187 102 215 104 6 0 -11 -12 -38 -27z m43 -42 c0 -4 -7 -13 -15 -20 -8 -7
-15 -9 -15 -4 0 4 -5 3 -12 -4 -15 -15 -32 -16 -22 -1 4 8 0 9 -15 4 -12 -4
-21 -2 -21 4 0 6 7 11 15 11 8 0 15 4 15 10 0 5 16 9 35 8 19 -1 35 -4 35 -8z
m4107 -14 c27 -23 28 -28 27 -108 0 -84 -23 -176 -48 -197 -17 -14 -82 -15
-113 -2 -1 1 14 27 33 58 33 55 34 60 34 165 0 100 1 108 19 108 11 0 33 -11
48 -24z m1123 -44 c0 -10 -7 -19 -15 -19 -10 0 -12 4 -5 12 5 7 7 15 3 18 -3
4 -1 7 5 7 7 0 12 -8 12 -18z m1377 -1169 c260 -394 244 -365 180 -338 -19 8
-185 68 -369 134 -448 160 -513 185 -511 195 2 8 490 294 504 296 4 0 92 -129
196 -287z"/>
<path d="M11081 8084 c-89 -32 -168 -100 -198 -172 -18 -44 -12 -50 26 -23 47
34 111 59 181 71 71 12 149 1 242 -35 56 -22 78 -11 78 39 0 46 -34 94 -83
116 -53 24 -182 26 -246 4z"/>
<path d="M11086 7670 c-117 -21 -222 -107 -279 -228 -29 -61 -32 -76 -32 -167
0 -55 3 -111 7 -126 7 -24 6 -25 -63 -37 -39 -7 -82 -18 -97 -26 -32 -17 -88
-73 -80 -81 3 -3 34 4 69 15 85 29 234 29 337 0 87 -24 203 -81 295 -144 37
-25 69 -46 72 -46 2 0 -1 15 -7 33 -6 17 -40 60 -76 95 -35 35 -62 64 -60 66
1 1 15 8 30 15 43 22 89 72 111 121 21 46 28 149 14 205 l-7 30 17 -27 c20
-32 38 -36 51 -12 7 12 13 1 25 -43 30 -106 19 -207 -37 -336 -16 -36 -16 -38
1 -28 34 18 71 66 87 113 69 208 26 418 -110 538 -72 63 -167 88 -268 70z
m170 -138 c22 -11 48 -30 59 -43 19 -21 19 -22 1 -15 -11 3 -52 9 -93 12 l-74
6 22 -36 c63 -107 -59 -210 -145 -123 -18 17 -35 39 -39 47 -16 43 -53 -96
-43 -165 4 -23 15 -59 26 -79 16 -33 17 -36 2 -32 -10 2 -34 7 -54 10 -31 6
-38 12 -43 37 -10 44 4 155 26 215 32 85 106 158 189 185 38 13 123 3 166 -19z"/>
<path d="M9589 6058 c-58 -78 -84 -146 -84 -218 1 -138 67 -194 199 -167 37 8
38 8 32 -15 -92 -309 -93 -482 -4 -614 48 -71 107 -98 213 -98 l82 0 6 -105
c13 -237 99 -398 232 -437 43 -12 62 -13 95 -4 49 13 80 41 80 74 0 20 -6 24
-45 29 -60 9 -117 39 -165 88 -79 81 -111 197 -111 399 0 69 3 133 7 143 8 21
-9 22 -27 1 -35 -43 -124 -69 -182 -53 -170 45 -220 370 -102 662 7 17 5 17
-31 -2 -58 -31 -106 -28 -150 11 -71 63 -80 125 -35 258 16 47 28 87 26 88 -2
2 -18 -16 -36 -40z"/>
<path d="M5164 3745 c-17 -13 -16 -14 14 -4 33 11 41 19 19 19 -7 0 -22 -7
-33 -15z"/>
<path d="M5068 3723 c7 -3 16 -2 19 1 4 3 -2 6 -13 5 -11 0 -14 -3 -6 -6z"/>
<path d="M6650 7106 c0 -10 28 -13 41 -5 10 6 7 9 -13 9 -16 0 -28 -2 -28 -4z"/>
<path d="M5770 5759 c0 -5 5 -7 10 -4 6 3 10 8 10 11 0 2 -4 4 -10 4 -5 0 -10
-5 -10 -11z"/>
<path d="M14557 4656 c-3 -8 -9 -41 -12 -73 -6 -49 -4 -62 12 -82 17 -20 22
-22 41 -12 19 10 22 20 21 69 -1 31 -4 68 -8 82 -8 28 -45 39 -54 16z"/>
<path d="M14340 4605 c-15 -18 -8 -38 45 -121 38 -59 59 -67 77 -30 9 21 6 32
-15 68 -28 49 -71 98 -85 98 -5 0 -15 -7 -22 -15z"/>
<path d="M14768 4590 c-22 -14 -58 -73 -58 -97 0 -12 6 -26 14 -32 12 -10 19
-8 35 8 60 60 67 154 9 121z"/>
<path d="M14913 4403 c-96 -80 -449 -355 -478 -372 -20 -13 -26 -12 -53 8 -52
37 -80 36 -147 -4 -77 -46 -98 -70 -85 -96 14 -26 41 -24 98 8 33 18 55 24 72
20 26 -6 190 -138 340 -271 57 -51 93 -76 110 -76 17 0 67 35 161 113 274 227
291 244 263 271 -8 9 -19 16 -24 16 -7 0 -212 -162 -332 -262 -46 -40 -83 -47
-83 -18 0 9 59 65 130 124 72 60 154 132 183 160 49 47 53 54 48 87 -6 37
-112 329 -125 342 -4 4 -39 -18 -78 -50z m31 -89 c10 -25 7 -32 -16 -53 -16
-16 -25 -18 -35 -10 -18 16 -16 29 9 56 25 27 34 29 42 7z m-110 -90 c8 -20
-8 -48 -36 -68 -21 -15 -23 -14 -35 7 -11 20 -9 25 20 49 37 32 43 33 51 12z
m163 -20 c8 -22 -36 -67 -54 -53 -17 15 -16 29 4 51 20 22 42 23 50 2z m-277
-99 c0 -7 -15 -24 -34 -38 -25 -19 -36 -23 -45 -14 -18 18 -13 34 20 61 24 21
34 24 45 15 8 -6 14 -17 14 -24z m169 16 c8 -14 4 -24 -19 -46 -29 -28 -30
-28 -45 -9 -20 26 -19 29 11 53 33 26 41 26 53 2z m151 -14 c0 -19 -37 -50
-49 -42 -17 10 -13 33 7 44 24 15 42 13 42 -2z m-260 -92 c0 -8 -12 -23 -27
-34 -25 -20 -27 -21 -45 -4 -20 17 -19 18 13 45 25 21 36 25 46 17 7 -7 13
-17 13 -24z m160 15 c0 -11 -12 -27 -26 -36 -22 -15 -27 -15 -35 -3 -6 10 -2
21 17 37 31 27 44 28 44 2z m-350 -10 c9 -17 6 -24 -17 -45 -32 -28 -46 -31
-62 -11 -9 11 -4 20 24 45 20 17 38 31 40 31 2 0 9 -9 15 -20z m250 -80 c0
-11 -11 -27 -25 -36 -21 -14 -28 -14 -41 -3 -14 12 -13 16 12 36 36 28 54 29
54 3z m-180 -5 c11 -13 9 -20 -10 -40 -29 -30 -46 -32 -60 -5 -9 17 -7 24 12
40 28 24 42 25 58 5z m73 -79 c3 -8 -4 -23 -16 -34 -20 -19 -24 -19 -42 -6
-20 15 -20 15 5 34 30 23 46 25 53 6z"/>
<path d="M14209 4424 c-11 -14 -10 -19 13 -39 33 -29 112 -59 133 -52 8 4 15
15 15 26 0 14 -18 28 -62 50 -70 36 -81 37 -99 15z"/>
<path d="M14230 4221 c-18 -5 -25 -14 -25 -31 0 -24 4 -25 62 -28 73 -3 106
10 101 41 -3 19 -10 22 -58 24 -30 1 -66 -2 -80 -6z"/>
<path d="M15159 3895 c-40 -22 -54 -64 -35 -108 33 -81 156 -56 156 31 0 24
-8 42 -29 63 -33 32 -53 35 -92 14z m51 -75 c0 -11 -4 -20 -9 -20 -11 0 -22
26 -14 34 12 12 23 5 23 -14z"/>
<path d="M14849 3651 c-21 -22 -29 -39 -29 -66 0 -48 44 -95 90 -95 46 0 90
47 90 95 0 48 -44 95 -90 95 -22 0 -41 -9 -61 -29z m71 -75 c-13 -13 -35 7
-25 24 5 8 11 8 21 -1 10 -8 12 -15 4 -23z"/>
<path d="M15935 7096 c-234 -47 -442 -181 -544 -350 -112 -188 -134 -453 -48
-596 78 -130 192 -201 477 -295 212 -70 263 -100 289 -168 27 -71 -41 -162
-143 -192 -73 -22 -235 -19 -332 5 -88 22 -230 88 -313 144 -67 45 -49 64
-190 -196 l-104 -192 34 -29 c48 -40 220 -122 309 -147 249 -69 551 -67 769 6
176 59 335 192 410 345 62 126 84 229 79 359 -4 93 -8 115 -36 174 -66 141
-209 234 -487 316 -239 71 -295 109 -295 198 0 127 140 203 344 189 119 -8
206 -34 322 -93 l103 -52 106 209 105 208 -42 28 c-62 39 -180 87 -278 113
-71 19 -117 23 -275 26 -134 2 -211 -1 -260 -10z"/>
<path d="M22173 7082 c-87 -3 -93 -4 -97 -25 -14 -65 -91 -450 -112 -562 -14
-71 -25 -152 -25 -180 0 -53 -22 -161 -94 -470 -24 -104 -62 -275 -85 -380
-23 -104 -52 -236 -66 -292 -13 -57 -24 -105 -24 -108 0 -3 109 -4 243 -3
l242 3 61 275 61 275 289 6 c277 5 293 6 377 32 318 97 507 319 562 658 27
169 17 293 -36 431 -64 165 -217 276 -445 323 -63 13 -149 17 -419 18 -187 1
-382 1 -432 -1z m690 -463 c90 -25 143 -112 141 -234 -3 -132 -69 -246 -172
-296 -43 -21 -64 -23 -245 -27 -110 -2 -202 0 -206 4 -4 5 18 133 50 284 32
151 59 276 59 278 1 7 341 0 373 -9z"/>
<path d="M23939 7082 l-96 -3 -32 -80 c-17 -44 -31 -94 -31 -110 0 -16 -7 -46
-16 -67 -20 -48 -47 -256 -40 -304 4 -24 -11 -121 -43 -285 -27 -136 -52 -261
-55 -278 -2 -16 -28 -131 -56 -255 -29 -124 -59 -262 -69 -308 -9 -45 -21 -79
-26 -75 -4 5 -5 3 -2 -4 6 -9 -14 -127 -38 -230 l-5 -23 718 0 718 0 42 218
c24 119 43 220 42 225 0 4 -207 7 -460 7 -253 0 -460 4 -460 8 0 4 14 71 30
148 17 76 33 151 36 166 l6 28 385 2 386 3 38 190 c21 105 38 202 38 218 l1
27 -383 0 -383 0 30 165 31 165 455 2 455 3 44 218 c24 119 42 219 40 221 -5
4 -1178 12 -1300 8z m-175 -401 c-4 -23 -9 -40 -11 -37 -3 3 -2 23 2 46 4 23
9 39 11 37 3 -2 2 -23 -2 -46z m-17 -93 c-3 -7 -5 -2 -5 12 0 14 2 19 5 13 2
-7 2 -19 0 -25z"/>
<path d="M25522 7082 c-7 -5 -28 -84 -47 -178 -18 -93 -90 -432 -159 -754
-109 -512 -226 -1072 -226 -1086 0 -2 113 -3 252 -2 l252 3 56 280 56 280 125
3 125 3 114 -286 115 -285 277 0 c153 0 278 2 278 4 0 3 -50 119 -111 258 -61
139 -124 283 -139 320 l-29 68 82 42 c121 63 230 175 291 299 53 109 72 176
88 311 27 237 -53 474 -194 575 -100 71 -256 127 -384 137 -125 10 -809 16
-822 8z m784 -471 c114 -52 151 -183 97 -346 -11 -35 -33 -67 -73 -107 -80
-79 -114 -88 -347 -88 -171 0 -184 1 -179 18 5 19 106 527 106 536 0 3 80 6
178 6 151 0 183 -3 218 -19z"/>
<path d="M31517 7083 c-3 -5 -7 -21 -10 -38 -27 -135 -388 -1954 -391 -1967
-4 -17 35 -18 708 -18 l712 0 37 198 c21 108 41 209 44 225 l5 27 -456 0 -457
0 6 43 c4 23 19 101 33 172 l27 130 381 3 380 2 38 198 c21 108 40 207 43 220
l5 22 -379 0 -380 0 31 163 31 162 437 3 436 2 6 25 c14 57 76 392 76 412 l0
23 -679 0 c-374 0 -682 -3 -684 -7z"/>
<path d="M17561 6967 c-101 -176 -650 -1162 -977 -1752 l-83 -150 266 -3 c147
-1 270 1 274 5 4 5 50 92 104 196 l97 187 371 -2 372 -3 25 -190 25 -190 263
-3 c144 -1 262 -1 262 2 0 2 -27 142 -60 312 -32 170 -75 390 -93 489 -19 99
-81 413 -138 697 l-104 518 -270 0 -270 0 -64 -113z m292 -764 c26 -164 48
-301 47 -305 0 -5 -97 -8 -216 -8 l-216 0 64 118 c34 65 108 203 163 305 55
103 102 187 105 187 3 0 27 -134 53 -297z"/>
<path d="M19065 7068 c-2 -7 -50 -242 -105 -523 -126 -635 -289 -1444 -296
-1467 -5 -17 32 -18 674 -18 l679 0 27 168 c36 233 44 287 42 289 -1 1 -183 4
-405 7 -221 2 -404 6 -407 9 -6 6 27 182 176 930 66 329 120 603 120 608 0 15
-500 12 -505 -3z"/>
<path d="M20552 7033 c-74 -348 -382 -1922 -382 -1956 0 -16 39 -17 638 -17
l638 0 47 213 c26 116 47 218 47 225 0 9 -85 12 -390 12 -365 0 -390 1 -390
18 0 9 14 88 31 174 l32 158 386 2 385 3 43 209 c23 115 40 213 37 218 -3 4
-174 8 -381 8 l-376 0 7 43 c3 23 16 98 29 167 l24 125 418 5 419 5 8 40 c5
21 6 45 4 52 -7 16 12 120 27 153 7 14 24 41 40 61 33 42 47 107 26 120 -8 5
-314 9 -685 9 l-671 0 -11 -47z"/>
<path d="M27270 7071 c0 -5 -34 -175 -75 -378 -178 -877 -191 -962 -175 -1104
18 -161 70 -269 180 -372 72 -68 207 -147 214 -125 3 7 7 42 11 78 7 75 24
174 66 385 16 82 39 206 50 275 19 121 76 423 179 946 28 139 50 264 50 278
l0 26 -250 0 c-146 0 -250 -4 -250 -9z"/>
<path d="M28436 7063 c-3 -10 -17 -81 -31 -158 -25 -137 -77 -401 -156 -799
-22 -110 -53 -251 -69 -315 -35 -142 -150 -690 -150 -719 0 -19 3 -20 38 -10
55 15 174 71 229 109 114 78 228 209 291 334 84 169 97 222 256 1030 93 470
100 527 70 539 -9 3 -118 6 -244 6 -209 0 -229 -1 -234 -17z"/>
<path d="M29768 7072 c-30 -4 -34 -12 -43 -98 l-7 -61 36 -7 c27 -5 37 -13 42
-31 14 -54 -56 -553 -140 -995 -72 -381 -147 -778 -151 -798 l-5 -22 252 2
253 3 8 65 c16 123 77 474 85 481 4 4 95 9 202 12 221 5 294 20 435 86 209 99
356 277 416 506 30 113 37 308 14 409 -50 228 -219 383 -475 436 -87 18 -130
20 -495 18 -220 -1 -412 -4 -427 -6z m787 -461 c81 -37 118 -106 117 -216 -1
-154 -80 -272 -207 -311 -71 -22 -415 -33 -415 -13 0 8 23 129 50 269 27 140
50 263 50 273 0 16 15 17 183 17 156 0 188 -3 222 -19z"/>
<path d="M28978 5661 c-67 -27 -118 -70 -155 -133 -91 -150 -81 -335 22 -426
52 -45 100 -62 181 -62 78 0 118 12 180 56 96 65 146 168 147 299 1 123 -45
209 -138 258 -57 29 -174 34 -237 8z"/>
<path d="M31697 4690 c-48 -15 -93 -56 -110 -102 -9 -24 -44 -169 -77 -323
-34 -154 -83 -377 -110 -495 -27 -118 -53 -239 -58 -268 -9 -51 -9 -52 17 -59
14 -4 51 -7 82 -7 83 -1 101 15 134 121 59 189 276 933 297 1016 28 116 25
121 -73 124 -41 1 -87 -2 -102 -7z"/>
<path d="M32305 4681 c-87 -39 -92 -53 -195 -526 -27 -126 -65 -297 -84 -380
-45 -191 -67 -318 -57 -328 13 -13 138 -11 170 3 36 14 38 20 184 525 213 732
204 695 182 711 -28 21 -150 18 -200 -5z"/>
<path d="M29530 4160 c-101 -16 -170 -48 -231 -109 -72 -72 -94 -132 -94 -251
1 -149 49 -218 230 -330 117 -73 143 -99 152 -155 13 -79 -56 -168 -140 -180
-64 -10 -102 1 -135 40 -43 48 -48 94 -21 178 22 68 22 70 4 83 -28 20 -122
17 -172 -6 -46 -21 -83 -69 -83 -110 0 -36 -25 -67 -72 -91 -51 -26 -92 -27
-119 -3 -19 17 -21 27 -16 89 2 39 41 226 86 418 44 191 81 358 81 371 0 71
-199 59 -268 -17 -23 -24 -73 -210 -158 -587 -33 -143 -57 -180 -147 -224 -61
-31 -106 -33 -138 -7 -37 30 -30 85 56 474 l78 349 -25 25 c-37 36 -124 42
-200 13 -77 -29 -176 -102 -184 -137 -11 -42 15 -78 54 -77 18 1 32 -3 32 -8
0 -6 -28 -132 -62 -282 -68 -298 -75 -315 -157 -367 -92 -59 -159 -63 -181
-10 -13 33 -4 82 102 546 79 344 77 332 44 345 -49 18 -125 12 -187 -16 l-59
-27 -62 28 c-94 42 -176 45 -284 10 -229 -74 -385 -279 -448 -588 l-23 -108
-69 -70 c-130 -132 -261 -195 -387 -187 -80 5 -117 30 -154 106 -25 52 -28 66
-27 157 3 239 88 454 204 513 49 25 91 24 122 -5 22 -20 23 -61 1 -130 -22
-69 -13 -78 77 -78 54 0 75 5 97 21 42 31 64 77 70 144 23 247 -286 333 -550
154 -181 -124 -294 -337 -313 -592 -30 -401 248 -601 623 -450 78 32 164 90
244 166 37 34 69 62 72 62 2 0 8 -15 11 -32 21 -108 103 -208 194 -234 116
-34 223 4 339 121 41 41 76 75 78 75 1 0 5 -21 9 -47 8 -65 37 -108 87 -134
36 -18 55 -21 123 -17 102 5 188 45 280 130 36 32 67 55 69 51 2 -5 7 -21 11
-38 22 -91 99 -145 208 -145 110 0 196 52 284 172 20 26 40 48 45 48 5 0 9
-19 9 -42 0 -49 27 -114 58 -141 82 -74 233 -56 377 44 l70 48 35 -34 c80 -77
231 -114 389 -95 198 25 296 92 352 239 17 46 20 72 17 141 -7 137 -45 189
-203 280 -144 82 -175 122 -175 221 0 96 53 159 133 159 30 0 46 -7 69 -30 28
-29 30 -35 26 -93 -2 -34 -11 -77 -20 -95 -16 -31 -16 -32 5 -44 12 -6 50 -12
84 -12 47 -1 68 4 90 20 97 71 90 262 -11 339 -64 48 -196 72 -306 55z m-1999
-206 c5 -3 9 -14 9 -24 0 -27 -108 -509 -121 -543 -6 -15 -38 -51 -70 -81 -71
-66 -134 -87 -192 -62 -21 8 -42 27 -51 45 -57 109 -7 365 104 535 49 75 92
115 145 135 29 10 157 7 176 -5z"/>
<path d="M16625 4146 c-194 -64 -346 -238 -431 -496 -25 -78 -28 -98 -28 -235
-1 -189 15 -237 108 -331 84 -84 143 -107 286 -108 123 0 189 16 300 76 82 44
138 85 216 161 l52 49 16 -53 c29 -103 92 -177 182 -215 58 -25 200 -22 285 5
128 41 256 151 340 292 50 84 103 231 119 329 l12 75 63 43 c35 24 92 70 128
102 36 33 68 60 71 60 12 0 4 -38 -75 -383 -45 -194 -90 -387 -99 -430 l-18
-79 34 -14 c81 -34 212 -5 255 56 10 14 39 115 64 225 117 512 105 473 163
537 51 57 91 74 164 69 27 -2 48 -30 48 -65 0 -32 -59 -303 -138 -636 -26
-107 -36 -169 -30 -177 16 -20 99 -32 150 -23 91 18 138 57 159 134 6 22 40
167 74 321 35 154 68 292 74 306 46 122 234 189 255 92 7 -31 -25 -199 -78
-411 -61 -246 -58 -344 11 -401 96 -79 269 -54 420 60 29 22 53 36 53 33 0
-13 -99 -449 -146 -643 -24 -101 -44 -189 -44 -197 0 -28 129 -44 199 -24 81
23 97 63 192 486 33 148 62 277 65 287 5 15 10 15 51 -10 36 -21 63 -27 123
-31 129 -7 243 38 356 140 88 81 195 244 177 271 -4 7 -8 125 -8 262 l0 250
-32 65 c-45 91 -111 156 -167 164 -24 4 -58 4 -77 1 -47 -8 -133 -62 -180
-113 l-40 -42 7 62 c8 84 -9 101 -104 106 -62 3 -73 1 -147 -37 -102 -51 -145
-90 -145 -130 0 -43 25 -64 67 -56 18 3 33 2 33 -2 0 -18 -119 -540 -128 -563
-23 -60 -154 -151 -219 -153 -65 -2 -68 44 -17 258 68 287 84 374 84 453 -1
108 -36 179 -108 216 -110 56 -256 6 -381 -131 -33 -35 -61 -60 -64 -56 -3 4
-8 24 -12 43 -13 63 -51 116 -101 140 -38 19 -57 22 -113 18 -87 -6 -154 -41
-240 -125 -36 -35 -66 -61 -68 -60 -1 2 1 27 6 57 16 101 -19 136 -127 128
-88 -6 -142 -39 -277 -167 -68 -66 -139 -124 -163 -135 l-43 -19 -32 30 c-56
53 -114 70 -181 52 -81 -22 -115 -66 -116 -150 0 -66 12 -84 71 -113 41 -20
44 -24 47 -64 10 -132 -87 -320 -191 -373 -30 -16 -52 -20 -84 -16 -90 10
-127 80 -126 237 0 172 59 338 160 450 77 86 148 104 303 79 84 -13 110 -7
110 28 0 54 -75 128 -161 158 -55 20 -172 19 -240 -1 -234 -69 -434 -340 -464
-631 -7 -65 -9 -70 -59 -116 -121 -114 -222 -176 -328 -203 -141 -36 -243 16
-278 142 -20 69 -8 240 24 347 57 192 141 297 239 297 74 0 98 -67 57 -159
-11 -23 -18 -47 -15 -52 11 -16 86 -30 131 -23 79 12 124 65 139 165 13 90
-33 176 -119 222 -33 17 -62 22 -151 24 -72 2 -124 -2 -150 -11z m3920 -270
c43 -28 59 -82 59 -192 -1 -158 -48 -288 -144 -397 -100 -113 -310 -146 -310
-48 0 15 11 79 25 142 80 359 90 386 171 458 70 61 142 75 199 37z"/>
<path d="M21452 4141 c-69 -24 -106 -55 -164 -138 -16 -24 -31 -43 -34 -43 -3
0 -2 21 2 48 12 93 -53 142 -170 127 -26 -3 -68 -15 -92 -26 -49 -24 -134
-109 -134 -136 0 -30 29 -63 56 -63 27 0 30 -17 14 -85 -5 -22 -13 -76 -19
-121 -10 -84 -4 -121 36 -198 19 -37 31 -219 15 -238 -5 -7 -13 -38 -17 -68
-4 -30 -14 -86 -22 -124 -15 -66 -14 -70 3 -83 10 -7 43 -13 74 -13 48 0 60 4
80 25 21 23 25 37 27 111 2 62 10 107 29 162 14 42 43 158 64 258 50 241 94
324 176 340 48 9 64 -11 64 -82 0 -63 9 -68 85 -48 72 18 87 26 119 64 35 42
49 102 44 181 -6 76 -26 113 -77 138 -57 29 -100 32 -159 12z"/>
<path d="M22089 4141 c-187 -51 -340 -235 -405 -486 -35 -134 -44 -322 -19
-414 33 -128 84 -203 162 -238 46 -21 66 -25 131 -21 101 5 157 33 231 115 31
35 61 63 68 63 7 0 15 -17 19 -37 9 -47 74 -118 122 -134 47 -16 148 -15 198
1 51 17 159 84 207 129 70 66 87 129 44 169 -13 12 -28 22 -33 22 -6 0 -28
-18 -49 -41 -61 -62 -103 -81 -161 -70 -70 13 -86 39 -80 121 6 72 38 230 62
301 21 66 113 482 108 490 -2 4 -25 14 -50 23 -55 19 -93 12 -155 -26 -25 -15
-50 -28 -55 -28 -5 0 -21 11 -36 25 -38 35 -61 42 -158 49 -65 4 -101 1 -151
-13z m277 -194 c7 -7 -6 -78 -51 -272 -12 -55 -33 -149 -46 -208 -23 -109 -23
-109 -77 -158 -101 -93 -201 -90 -251 8 -16 31 -13 207 4 281 37 157 139 307
236 344 44 18 169 21 185 5z"/>
<path d="M24007 4136 c-67 -28 -121 -63 -162 -106 -16 -17 -32 -30 -37 -30 -4
0 -8 18 -8 41 0 53 -14 78 -55 95 -81 34 -193 -1 -291 -90 -39 -35 -47 -48
-46 -76 1 -42 26 -63 64 -54 21 4 28 2 28 -9 0 -30 -52 -323 -66 -372 -23 -82
-94 -436 -94 -469 0 -17 7 -41 15 -53 21 -30 30 -192 16 -309 -20 -178 -22
-184 -36 -184 -10 0 -15 -29 -20 -117 -3 -65 -9 -125 -11 -134 -6 -22 22 -29
111 -29 94 0 150 25 172 77 21 51 32 243 27 482 -2 115 1 201 6 212 10 17 13
17 63 -9 46 -24 63 -27 148 -27 90 0 99 2 172 38 42 21 102 61 133 89 64 59
169 209 197 282 27 73 67 280 67 350 0 81 -24 226 -44 264 -27 51 -112 130
-154 141 -87 23 -135 23 -195 -3z m55 -268 c41 -29 52 -76 45 -207 -7 -145
-31 -225 -97 -324 -96 -143 -216 -197 -337 -151 -55 21 -59 37 -37 155 29 162
109 376 169 455 73 95 181 126 257 72z"/>
<path d="M24961 4145 c-201 -45 -365 -199 -435 -409 -18 -52 -56 -286 -56
-341 0 -62 -18 -93 -66 -111 -37 -14 -44 -21 -44 -44 0 -38 32 -64 67 -56 57
14 61 12 95 -44 68 -111 186 -165 363 -164 76 1 115 6 165 23 184 64 420 268
420 363 0 28 -30 68 -51 68 -6 0 -22 -14 -37 -32 -44 -52 -168 -145 -240 -179
-92 -45 -196 -51 -262 -17 -46 24 -95 83 -105 128 -5 23 3 29 107 85 207 110
313 207 386 354 47 95 56 194 23 258 -22 45 -70 89 -116 109 -50 21 -144 25
-214 9z m129 -193 c16 -13 24 -32 27 -69 6 -60 -18 -121 -78 -200 -58 -74
-208 -193 -245 -193 -11 0 4 144 22 213 39 152 135 261 235 266 9 1 27 -7 39
-17z"/>
<path d="M30434 4142 c-144 -51 -270 -168 -351 -327 -57 -113 -75 -163 -98
-284 -23 -117 -17 -294 13 -372 55 -140 173 -206 318 -176 82 17 142 55 211
132 32 36 61 65 66 65 4 0 7 -15 7 -32 0 -18 9 -52 19 -75 56 -122 260 -131
414 -18 86 64 132 153 111 214 -14 40 -38 36 -99 -14 -52 -42 -61 -46 -103
-43 -77 5 -79 19 -32 239 35 168 128 577 145 640 10 39 -24 59 -98 59 -42 0
-71 -7 -107 -25 -27 -14 -55 -25 -61 -25 -7 0 -37 12 -68 28 -73 36 -208 42
-287 14z m278 -187 c12 -5 16 -14 13 -29 -118 -540 -116 -534 -173 -597 -55
-62 -107 -89 -167 -89 -99 0 -120 37 -112 204 10 230 107 434 239 501 46 23
61 26 118 22 36 -3 73 -9 82 -12z"/>
<path d="M31320 3268 c-65 -34 -102 -86 -108 -151 -8 -102 41 -149 158 -151
83 0 133 27 161 88 71 156 -61 290 -211 214z"/>
<path d="M31931 3272 c-59 -29 -94 -83 -99 -151 -8 -108 38 -151 160 -151 100
0 159 50 174 146 8 56 -23 126 -68 154 -42 25 -120 27 -167 2z"/>
<path d="M16268 1890 c-108 -32 -164 -138 -124 -233 20 -49 69 -84 149 -108
109 -31 136 -45 143 -75 6 -22 2 -32 -21 -52 -25 -21 -36 -24 -90 -20 -39 2
-80 13 -113 29 l-52 26 -20 -45 c-24 -54 -20 -61 53 -92 64 -28 178 -38 233
-20 94 30 139 95 132 188 -8 89 -55 129 -200 166 -70 19 -113 49 -104 73 3 8
6 19 6 24 0 16 58 39 97 39 21 -1 56 -8 78 -16 75 -29 71 -29 89 22 15 44 15
48 -2 60 -47 37 -185 55 -254 34z"/>
<path d="M18694 1882 c-74 -26 -128 -74 -161 -140 -24 -49 -28 -69 -28 -142 1
-109 27 -172 97 -235 149 -134 386 -79 454 107 20 52 22 176 5 235 -40 143
-220 228 -367 175z m177 -125 c99 -66 105 -240 10 -320 -26 -22 -43 -27 -85
-27 -67 0 -113 28 -143 90 -64 126 12 280 137 280 32 0 58 -7 81 -23z"/>
<path d="M20335 1885 c-90 -35 -139 -126 -115 -215 15 -55 66 -96 153 -120 39
-11 88 -28 107 -38 30 -15 35 -22 35 -52 0 -27 -6 -37 -25 -48 -38 -20 -128
-10 -189 20 l-52 25 -19 -38 c-30 -58 -26 -67 38 -97 49 -23 70 -27 152 -27
86 0 100 3 142 27 61 37 93 99 84 166 -12 85 -48 116 -186 158 -94 29 -120 46
-120 80 0 56 90 80 175 48 73 -28 71 -29 88 18 10 24 17 47 17 51 0 3 -19 16
-42 29 -55 28 -184 35 -243 13z"/>
<path d="M21140 1891 c-91 -28 -167 -98 -194 -179 -25 -73 -21 -186 10 -252
14 -30 37 -68 52 -83 70 -74 202 -105 303 -72 70 24 149 101 172 169 21 62 22
166 1 235 -38 130 -212 222 -344 182z m155 -132 c76 -45 104 -180 55 -267 -60
-106 -216 -107 -271 0 -45 87 -21 218 48 263 56 37 111 38 168 4z"/>
<path d="M27487 1890 c-128 -23 -193 -138 -136 -239 27 -48 74 -79 167 -110
63 -21 78 -31 86 -53 7 -20 5 -33 -8 -52 -15 -23 -23 -26 -79 -26 -34 0 -83 7
-108 16 -26 10 -54 14 -62 11 -28 -11 -48 -51 -41 -85 5 -27 13 -34 48 -43 69
-19 235 -16 274 4 92 50 122 218 49 284 -12 11 -55 30 -96 42 -107 32 -143 76
-105 129 18 26 72 29 166 10 31 -7 60 -10 62 -7 3 2 8 27 11 56 l7 51 -38 6
c-83 12 -151 14 -197 6z"/>
<path d="M28003 1890 c-58 -12 -89 -35 -121 -89 -25 -42 -27 -57 -31 -168 -4
-144 11 -203 67 -265 49 -54 80 -68 153 -68 82 0 132 16 181 59 35 32 41 43
47 96 5 33 16 78 27 100 24 53 25 187 2 230 -38 70 -105 105 -212 110 -39 2
-90 0 -113 -5z m187 -123 c41 -21 55 -62 41 -122 -6 -27 -12 -56 -13 -62 -1
-7 -5 -13 -10 -13 -4 0 -8 -9 -8 -19 0 -11 -5 -23 -10 -26 -6 -4 -10 -12 -9
-18 7 -61 -25 -97 -86 -97 -83 0 -124 64 -125 193 0 85 17 137 54 162 26 19
131 20 166 2z"/>
<path d="M29125 1880 c-59 -28 -84 -51 -91 -85 -4 -23 -1 -35 14 -48 18 -16
20 -16 43 1 58 45 168 54 210 16 17 -15 36 -66 53 -144 5 -22 10 -25 53 -25
l48 0 3 72 c4 88 -21 149 -76 187 -69 47 -188 59 -257 26z"/>
<path d="M15040 1835 l0 -55 80 0 80 0 0 -240 0 -240 60 0 60 0 2 238 3 237
83 3 82 3 0 54 0 55 -225 0 -225 0 0 -55z"/>
<path d="M15562 1667 l3 -224 30 -48 c43 -70 102 -98 203 -99 64 0 85 4 122
24 49 28 84 73 100 129 5 20 10 127 10 239 l0 202 -60 0 -60 0 0 -202 c0 -184
-2 -206 -20 -235 -39 -65 -144 -63 -187 3 -15 23 -18 50 -19 149 -1 66 -2 157
-3 203 l-1 82 -61 0 -60 0 3 -223z"/>
<path d="M16870 1595 l0 -295 60 0 60 0 2 168 3 167 71 -135 c66 -124 74 -135
99 -135 26 0 34 11 89 111 102 185 95 186 95 -8 l1 -168 60 0 60 0 0 296 0
295 -51 -3 -52 -3 -74 -135 c-42 -74 -87 -155 -101 -179 l-25 -44 -25 49 c-13
27 -58 109 -99 182 l-74 132 -50 0 -49 0 0 -295z"/>
<path d="M17590 1595 l0 -295 210 0 210 0 0 55 0 55 -145 0 -145 0 0 70 0 70
126 0 125 0 -3 53 -3 52 -122 3 -123 3 0 59 0 60 140 0 140 0 0 55 0 55 -205
0 -205 0 0 -295z"/>
<path d="M18090 1835 l0 -55 95 0 95 0 0 -170 c0 -159 -1 -171 -21 -191 -26
-26 -78 -19 -126 17 l-31 24 -32 -43 -31 -42 35 -31 c83 -72 221 -72 284 0 43
49 52 108 52 341 l0 205 -160 0 -160 0 0 -55z"/>
<path d="M19177 1884 c-2 -5 -5 -138 -5 -296 l-1 -288 65 0 64 0 0 80 0 80 58
0 57 0 48 -80 48 -80 66 0 c76 0 76 -6 4 109 l-51 81 35 32 c51 44 66 80 67
151 0 99 -28 148 -107 190 -34 18 -61 22 -191 25 -83 2 -154 0 -157 -4z m271
-115 c65 -22 85 -113 36 -163 -24 -24 -34 -26 -105 -26 l-79 0 0 100 0 100 59
0 c32 0 72 -5 89 -11z"/>
<path d="M19730 1595 l0 -295 210 0 210 0 0 55 0 54 -147 3 -148 3 0 65 0 65
128 3 127 3 0 49 0 50 -67 1 c-38 0 -95 1 -128 2 l-60 2 0 60 0 60 143 3 142
3 0 54 0 55 -205 0 -205 0 0 -295z"/>
<path d="M21600 1595 l0 -295 60 0 60 0 0 105 0 104 123 3 122 3 3 52 3 52
-123 3 -123 3 -3 77 -3 77 138 3 138 3 0 50 0 50 -197 3 -198 2 0 -295z"/>
<path d="M22087 1884 c-4 -4 -7 -137 -7 -296 l0 -288 210 0 210 0 0 55 0 55
-145 0 -145 0 0 70 0 70 125 0 125 0 0 50 0 50 -125 0 -125 0 0 65 0 65 141 0
140 0 -3 53 -3 52 -196 3 c-107 1 -198 -1 -202 -4z"/>
<path d="M22590 1596 l0 -296 59 0 58 0 7 46 c3 26 6 62 6 80 l0 34 58 0 59 0
44 -80 44 -80 68 0 69 0 -35 63 c-19 34 -43 76 -53 94 l-19 32 27 20 c52 41
71 87 71 166 -1 100 -29 147 -113 191 -28 14 -66 19 -192 22 l-158 4 0 -296z
m311 145 c22 -23 29 -39 29 -68 -1 -70 -37 -93 -144 -93 l-76 0 0 95 0 95 81
0 c76 0 82 -2 110 -29z"/>
<path d="M23100 1830 l0 -60 80 0 80 0 0 -235 0 -236 63 3 62 3 -4 231 -3 232
91 7 91 7 0 54 0 54 -230 0 -230 0 0 -60z"/>
<path d="M24335 1881 c-65 -17 -92 -42 -117 -109 -24 -63 -18 -126 17 -162 31
-32 103 -63 172 -75 71 -11 105 -73 63 -115 -25 -25 -105 -27 -192 -5 -73 20
-88 11 -88 -50 0 -40 2 -44 33 -54 66 -21 161 -24 226 -7 114 29 148 73 138
173 -5 49 -11 62 -45 96 -32 31 -56 44 -123 63 -110 32 -129 45 -129 89 0 18
8 41 17 50 16 17 45 17 219 2 15 -2 20 5 22 36 3 35 1 39 -32 52 -44 19 -140
27 -181 16z"/>
<path d="M24976 1881 c-28 -4 -40 -11 -43 -26 -12 -60 -13 -106 -6 -155 6 -37
5 -77 -4 -124 -7 -38 -12 -78 -12 -90 0 -12 -3 -58 -7 -103 l-6 -83 226 0 227
0 -6 38 c-4 20 -15 48 -24 62 -21 30 -72 38 -91 16 -9 -12 -33 -16 -99 -16
-132 0 -131 0 -131 80 0 80 0 80 106 80 l74 0 0 51 0 52 -70 -7 -70 -7 0 65 0
66 140 0 c77 0 140 3 141 8 0 4 2 26 5 48 5 40 4 42 -27 48 -38 7 -269 6 -323
-3z"/>
<path d="M26287 1868 c-9 -32 -8 -189 2 -341 9 -131 23 -172 59 -183 9 -3 35
-14 57 -25 45 -21 100 -25 111 -7 4 6 2 14 -5 16 -16 5 5 32 25 32 22 0 16 31
-6 37 -11 3 -20 10 -20 15 0 6 -16 7 -39 3 -67 -11 -71 3 -71 252 l0 213 -24
0 c-13 0 -37 3 -53 6 -26 5 -31 2 -36 -18z"/>
<path d="M28500 1595 l0 -295 185 0 c135 0 185 3 185 12 0 6 7 20 17 30 11 12
12 18 3 18 -7 0 -10 7 -6 16 15 38 -10 45 -140 38 l-124 -7 0 241 0 242 -60 0
-60 0 0 -295z"/>
<path d="M30272 1683 c4 -229 12 -265 74 -326 49 -49 82 -61 169 -61 102 -1
155 25 200 98 l30 49 3 224 3 223 -60 0 -60 0 -3 -211 -3 -211 -33 -29 c-38
-34 -102 -40 -141 -13 -44 31 -51 69 -51 274 l0 190 -66 0 -66 0 4 -207z"/>
<path d="M31010 1869 c-55 -25 -105 -71 -133 -124 -19 -34 -22 -56 -22 -145 0
-125 19 -176 92 -239 90 -79 224 -93 340 -35 l58 29 3 123 3 122 -56 0 -55 0
0 -83 c0 -80 -1 -84 -25 -95 -36 -16 -110 -15 -144 3 -93 48 -128 187 -71 281
24 38 92 74 138 74 39 0 92 -21 111 -43 18 -23 25 -22 66 14 41 36 43 48 13
77 -68 63 -225 83 -318 41z"/>
<path d="M31630 1871 c-5 -11 -59 -144 -119 -295 l-109 -276 63 0 63 0 24 60
23 60 126 0 126 0 22 -60 22 -60 64 0 65 0 -21 53 c-28 70 -183 452 -203 500
-16 37 -17 37 -76 37 -48 0 -61 -4 -70 -19z m114 -234 c20 -51 36 -96 36 -100
0 -4 -36 -7 -80 -7 -44 0 -80 3 -80 8 0 4 13 41 28 82 16 41 32 83 35 93 12
33 25 17 61 -76z"/>
<path d="M32060 1595 l0 -295 60 0 60 0 0 80 0 80 59 0 60 0 48 -80 48 -80 68
0 c37 0 66 3 64 8 -2 4 -27 46 -56 94 l-53 86 40 40 c82 82 82 215 -2 298 -54
55 -92 64 -258 64 l-138 0 0 -295z m275 171 c41 -17 55 -42 55 -96 0 -30 -6
-47 -25 -65 -22 -22 -32 -25 -105 -25 l-80 0 0 100 0 100 60 0 c33 0 76 -6 95
-14z"/>
<path d="M23740 1798 c-18 -46 -70 -170 -116 -277 -46 -106 -84 -200 -84 -207
0 -10 16 -14 59 -14 l59 0 24 60 23 61 129 -3 129 -3 16 -45 c24 -69 26 -70
96 -70 l64 0 -8 28 c-5 15 -22 49 -40 76 -17 28 -31 57 -31 66 0 20 -46 134
-70 175 -10 17 -33 76 -51 133 l-33 102 -67 0 -66 0 -33 -82z m134 -161 c15
-43 30 -85 33 -93 4 -11 -9 -14 -71 -14 -42 0 -76 3 -76 7 0 21 74 193 80 186
4 -4 19 -43 34 -86z"/>
<path d="M25745 1787 c-9 -123 -17 -131 -117 -128 -40 1 -75 6 -76 12 -2 5 -8
7 -13 3 -12 -7 -11 -85 1 -104 8 -12 10 -11 10 7 0 12 5 25 11 29 21 12 103
-89 159 -196 l55 -105 53 -3 52 -3 2 143 c4 323 4 420 -3 424 -4 2 -34 7 -67
10 l-60 7 -7 -96z"/>
<path d="M26583 1870 c-13 -5 -23 -13 -23 -18 0 -14 23 -32 41 -32 10 0 20 -6
22 -12 8 -20 45 31 40 53 -6 21 -41 24 -80 9z"/>
<path d="M26881 1763 c1 -105 -1 -119 -17 -128 -28 -15 -31 -22 -32 -81 0 -43
4 -56 18 -64 26 -14 28 -13 32 13 2 16 9 21 23 18 11 -2 36 -4 55 -5 31 -1 35
2 41 29 4 17 7 99 8 183 l1 152 -66 0 -65 0 2 -117z"/>
<path d="M29820 1590 l0 -290 195 0 195 0 0 55 0 54 -132 3 -133 3 -3 233 -2
232 -60 0 -60 0 0 -290z"/>
<path d="M25414 1753 c-4 -21 -7 -47 -6 -58 1 -10 -1 -26 -4 -35 -13 -28 -14
-58 -5 -99 5 -22 6 -42 3 -45 -11 -12 -11 -99 0 -119 13 -24 15 -29 17 -52 2
-27 19 -16 25 18 8 42 8 39 0 132 -6 78 -5 81 17 93 13 7 17 11 8 8 -13 -3
-15 2 -13 26 2 17 0 36 -4 42 -5 6 -10 34 -11 61 -3 64 -16 78 -27 28z"/>
<path d="M25477 1631 c-4 -17 -3 -21 5 -13 5 5 8 16 6 23 -3 8 -7 3 -11 -10z"/>
<path d="M29281 1424 c-19 -14 -40 -16 -111 -11 -114 7 -172 0 -168 -22 5 -26
94 -79 155 -91 112 -24 222 8 263 76 11 17 20 35 20 40 0 5 -21 9 -47 9 -27 0
-57 3 -68 7 -13 5 -29 2 -44 -8z"/>
</g>
</svg>
